<svg width="84" height="27" viewBox="0 0 84 27" fill="none" xmlns="http://www.w3.org/2000/svg">
<g clip-path="url(#clip0_2020_394)">
<path fill-rule="evenodd" clip-rule="evenodd" d="M17.6301 9.26256L20.5851 7.48781V0L17.6301 1.7548L14.1872 3.78877L13.823 4.00148V11.5258L14.1872 11.3165L17.6301 9.26256Z" fill="white"/>
<path fill-rule="evenodd" clip-rule="evenodd" d="M8.90269 10.5188L2.75568 6.90288L0 5.28102V19.4956L2.75568 21.1108L8.90269 24.7301L12.3284 26.7873L12.7063 27V12.7855L12.3284 12.5561L8.90269 10.5188Z" fill="white"/>
<path fill-rule="evenodd" clip-rule="evenodd" d="M12.3284 11.3331L12.6686 11.5258V4.00148L12.3284 3.80871L8.90269 1.77474L5.90649 0V7.48781L8.90269 9.27917L12.3284 11.3331Z" fill="white"/>
<path fill-rule="evenodd" clip-rule="evenodd" d="M17.6301 10.5388L14.1872 12.5761L13.823 12.7855V27L14.1872 26.7873L17.6301 24.7301L23.7599 21.1307L26.5328 19.4956V5.28102L23.7599 6.91618L17.6301 10.5388Z" fill="white"/>
<path fill-rule="evenodd" clip-rule="evenodd" d="M30.8176 12.6592C31.4512 13.023 32.1809 13.1997 32.917 13.1676C33.6797 13.1897 34.4267 12.9547 35.0301 12.503C35.6387 12.0093 36.0595 11.3332 36.2258 10.582L35.1641 10.3227C35.0669 10.8903 34.7738 11.4093 34.3326 11.795C33.9095 12.1317 33.3753 12.3098 32.8276 12.2969C32.3515 12.2996 31.8839 12.1742 31.4773 11.9346C31.0488 11.6803 30.7227 11.2923 30.553 10.8346C30.3458 10.282 30.2457 9.69731 30.2575 9.10967C30.2564 8.60452 30.3411 8.10264 30.5083 7.62407C30.6628 7.16125 30.9677 6.75908 31.3776 6.47747C31.8293 6.17985 32.3674 6.02963 32.9135 6.04874C33.3893 6.03075 33.8575 6.16767 34.2433 6.43759C34.6339 6.74951 34.9149 7.17105 35.0473 7.64402L36.0781 7.40472C35.9011 6.74283 35.4993 6.15762 34.9373 5.74298C34.3514 5.33504 33.6419 5.12695 32.9204 5.1514C32.2455 5.15605 31.5831 5.32767 30.9962 5.64992C30.41 5.96168 29.9364 6.4395 29.639 7.0192C29.307 7.6742 29.1431 8.397 29.1614 9.12629C29.1561 9.83809 29.2998 10.5436 29.584 11.2001C29.833 11.7961 30.2631 12.3048 30.8176 12.6592Z" fill="white"/>
<path fill-rule="evenodd" clip-rule="evenodd" d="M39.3629 9.80761C39.0681 9.83759 38.7754 9.88531 38.4867 9.95052C38.2339 10.0142 37.9943 10.1199 37.7789 10.2629C37.5671 10.4016 37.3927 10.5874 37.2704 10.8047C37.1417 11.0365 37.0755 11.296 37.078 11.5591C37.0712 11.7748 37.1136 11.9894 37.202 12.1875C37.2905 12.3856 37.4229 12.5625 37.5899 12.7057C38.0035 13.0306 38.5289 13.192 39.0605 13.1577C39.4312 13.1601 39.7991 13.097 40.1463 12.9716C40.5319 12.8181 40.8884 12.6036 41.2012 12.3368C41.2231 12.5791 41.287 12.8162 41.3902 13.038H42.421C42.3057 12.8299 42.2245 12.6056 42.1804 12.3733C42.1287 11.8209 42.1092 11.2661 42.122 10.7116V9.42541C42.1297 9.13328 42.1136 8.84102 42.0739 8.55133C42.0247 8.31488 41.9187 8.09291 41.7647 7.90325C41.5783 7.70548 41.3412 7.55874 41.0775 7.47784C40.6843 7.35296 40.2713 7.29669 39.8577 7.31167C39.4096 7.30431 38.9634 7.37061 38.5383 7.50775C38.1987 7.61557 37.8966 7.81228 37.6655 8.07607C37.4483 8.36184 37.3003 8.69125 37.2326 9.03988L38.1947 9.17282C38.2534 8.84707 38.427 8.55109 38.686 8.3353C38.9958 8.15465 39.3562 8.07214 39.7168 8.09934C40.1209 8.07264 40.5209 8.19096 40.8404 8.43168C40.9438 8.54059 41.022 8.6695 41.07 8.80988C41.118 8.95026 41.1346 9.09889 41.1187 9.24594C41.1187 9.2825 41.1187 9.36558 41.1187 9.4952C40.5453 9.65413 39.9573 9.75876 39.3629 9.80761ZM41.1187 10.572C41.1356 10.8953 41.0806 11.2183 40.9572 11.5192C40.8206 11.8028 40.5928 12.0359 40.3078 12.1839C39.9988 12.3484 39.6503 12.431 39.2976 12.4232C38.9846 12.4449 38.6742 12.3551 38.4249 12.1706C38.33 12.0941 38.2541 11.998 38.2029 11.8892C38.1518 11.7804 38.1266 11.6619 38.1294 11.5425C38.1287 11.3807 38.1781 11.2224 38.2711 11.0879C38.3642 10.9535 38.4967 10.849 38.6517 10.788C38.9298 10.6897 39.2195 10.625 39.5141 10.5953C40.0624 10.5366 40.6019 10.4173 41.1221 10.2397L41.1187 10.572Z" fill="white"/>
<path fill-rule="evenodd" clip-rule="evenodd" d="M43.7954 11.3929C43.7713 11.7723 43.8119 12.1529 43.9156 12.5196C43.9964 12.7073 44.1405 12.8631 44.3245 12.9616C44.5823 13.0851 44.8687 13.1423 45.156 13.1278C45.4047 13.1234 45.6522 13.0945 45.8948 13.0414L45.7608 12.2005C45.6188 12.2238 45.4752 12.2371 45.3313 12.2404C45.2123 12.2479 45.0935 12.2238 44.9877 12.1706C44.9128 12.1286 44.8538 12.0646 44.8193 11.9878C44.7741 11.8164 44.7567 11.6393 44.7678 11.4627V8.16248H45.7539V7.42799H44.7678V5.46713L43.7851 6.03877V7.42799H43.0601V8.16248H43.7851L43.7954 11.3929Z" fill="white"/>
<path fill-rule="evenodd" clip-rule="evenodd" d="M50.2756 5.25443H48.9802L48.2655 6.73671H49.0798L50.2756 5.25443Z" fill="white"/>
<path fill-rule="evenodd" clip-rule="evenodd" d="M49.0834 13.1577C49.5724 13.1655 50.0553 13.051 50.4852 12.8253C50.9018 12.6043 51.2414 12.269 51.4611 11.8615C51.7132 11.3298 51.831 10.7477 51.8047 10.1632C51.8271 9.78404 51.7715 9.40433 51.6412 9.04606C51.5108 8.6878 51.3083 8.35811 51.0453 8.07607C50.7919 7.82285 50.4863 7.62395 50.1483 7.49226C49.8103 7.36058 49.4475 7.29906 49.0834 7.31167C48.4176 7.29276 47.7684 7.51431 47.2623 7.93316C46.6644 8.43169 46.3655 9.19941 46.3655 10.2363C46.3655 11.1802 46.6129 11.8981 47.1145 12.4066C47.3705 12.6576 47.6778 12.8541 48.0169 12.9834C48.3559 13.1128 48.7192 13.1721 49.0834 13.1577ZM47.8567 8.64107C48.0082 8.47067 48.1967 8.33468 48.4087 8.24277C48.6207 8.15086 48.8511 8.10529 49.0834 8.10931C49.3142 8.10514 49.5431 8.1507 49.7535 8.24267C49.9638 8.33464 50.1504 8.47073 50.2997 8.64107C50.6576 9.08887 50.8325 9.64847 50.7911 10.2131C50.839 10.7984 50.6657 11.3806 50.3031 11.8516C50.1541 12.0233 49.9672 12.1605 49.7561 12.2531C49.545 12.3457 49.3151 12.3914 49.0834 12.3866C48.851 12.3913 48.6204 12.3461 48.4082 12.2541C48.1961 12.1622 48.0077 12.0258 47.8567 11.8549C47.4987 11.3921 47.3266 10.8193 47.3722 10.243C47.3278 9.66988 47.5 9.10067 47.8567 8.64107Z" fill="white"/>
<path d="M53.9109 5.29764H52.9282V13.038H53.9109V5.29764Z" fill="white"/>
<path d="M56.4158 7.42799H55.4331V13.038H56.4158V7.42799Z" fill="white"/>
<path d="M56.4158 5.29764H55.4331V6.37777H56.4158V5.29764Z" fill="white"/>
<path fill-rule="evenodd" clip-rule="evenodd" d="M60.2572 13.1577C60.8364 13.1752 61.4022 12.9873 61.848 12.6292C62.2962 12.2409 62.5832 11.7082 62.6555 11.1304L61.6969 11.0007C61.6643 11.3961 61.4892 11.7678 61.2021 12.051C60.9366 12.278 60.5907 12.3971 60.2366 12.3833C60.0147 12.39 59.7941 12.3477 59.5917 12.2596C59.3893 12.1715 59.2103 12.0399 59.0683 11.8748C58.7694 11.5425 58.6216 10.9874 58.6216 10.233C58.6216 9.47858 58.7763 8.95014 59.0855 8.60783C59.2339 8.43937 59.4198 8.30554 59.6293 8.21634C59.8387 8.12713 60.0663 8.08486 60.295 8.09269C60.601 8.08637 60.899 8.18796 61.1333 8.3785C61.3854 8.60423 61.5553 8.90264 61.6178 9.22932L62.5662 9.08973C62.4863 8.57513 62.2121 8.10741 61.7965 7.77695C61.3559 7.45659 60.8149 7.29233 60.264 7.31167C59.7841 7.30697 59.3109 7.4214 58.8896 7.64401C58.4655 7.87077 58.1327 8.229 57.9447 8.661C57.7264 9.16344 57.6198 9.70473 57.6321 10.2496C57.5785 11.0304 57.8368 11.8013 58.3536 12.4032C58.5972 12.6527 58.893 12.849 59.2212 12.9791C59.5495 13.1092 59.9027 13.1701 60.2572 13.1577Z" fill="white"/>
<path fill-rule="evenodd" clip-rule="evenodd" d="M65.4559 9.8076C65.161 9.83729 64.8684 9.88502 64.5797 9.95051C64.3269 10.0142 64.0874 10.1199 63.8719 10.2629C63.6601 10.4016 63.4857 10.5874 63.3634 10.8046C63.2347 11.0365 63.1686 11.296 63.171 11.5591C63.1642 11.7748 63.2066 11.9894 63.295 12.1875C63.3835 12.3856 63.5159 12.5625 63.683 12.7057C64.0964 13.0309 64.6219 13.1924 65.1536 13.1577C65.5242 13.1601 65.8921 13.097 66.2393 12.9716C66.625 12.8181 66.9814 12.6035 67.2942 12.3368C67.3161 12.5791 67.38 12.8162 67.4832 13.038H68.514C68.3983 12.8303 68.3182 12.6058 68.2769 12.3733C68.2196 11.8213 68.1989 11.2662 68.215 10.7116V9.4254C68.2239 9.13315 68.2066 8.84071 68.1635 8.55133C68.1169 8.31467 68.012 8.09236 67.8577 7.90325C67.6713 7.70548 67.4342 7.55874 67.1705 7.47784C66.7837 7.35567 66.378 7.29945 65.9713 7.31167C65.5243 7.3043 65.0793 7.37061 64.6553 7.50775C64.3152 7.61461 64.0129 7.81149 63.7826 8.07607C63.5653 8.36183 63.4173 8.69125 63.3497 9.03988L64.3117 9.17282C64.3704 8.84707 64.5441 8.55108 64.8031 8.3353C65.1129 8.15464 65.4733 8.07214 65.8339 8.09933C66.2379 8.07295 66.6378 8.19124 66.9575 8.43168C67.0608 8.54059 67.1391 8.6695 67.1871 8.80988C67.2351 8.95025 67.2517 9.09889 67.2358 9.24593C67.2358 9.28249 67.2358 9.36558 67.2358 9.4952C66.6546 9.6559 66.0584 9.76054 65.4559 9.8076ZM67.2083 10.572C67.226 10.895 67.1721 11.218 67.0502 11.5192C66.9136 11.8028 66.6858 12.0359 66.4008 12.1839C66.0918 12.3484 65.7433 12.431 65.3906 12.4232C65.0775 12.4455 64.7669 12.3556 64.5179 12.1706C64.4225 12.0943 64.3461 11.9982 64.2944 11.8895C64.2427 11.7808 64.2169 11.6621 64.219 11.5425C64.218 11.3831 64.2658 11.227 64.3564 11.0938C64.4499 10.9554 64.5856 10.8486 64.7447 10.788C65.0217 10.6896 65.3102 10.6249 65.6037 10.5953C66.1531 10.5368 66.6939 10.4175 67.2152 10.2397L67.2083 10.572Z" fill="white"/>
<path fill-rule="evenodd" clip-rule="evenodd" d="M32.0786 18.8741C31.8446 19.0591 31.5492 19.1559 31.2471 19.1466C30.9816 19.1483 30.7209 19.078 30.4946 18.9439C30.2565 18.8044 30.0756 18.5895 29.9826 18.3357C29.8669 18.0292 29.811 17.7047 29.8177 17.3785C29.8181 17.0971 29.8657 16.8176 29.9586 16.551C30.044 16.2948 30.2128 16.0721 30.4396 15.9162C30.6916 15.7515 30.9913 15.6688 31.2952 15.6802C31.5592 15.6685 31.8195 15.7434 32.0339 15.8929C32.2492 16.0654 32.4051 16.2973 32.4806 16.5576L33.0578 16.428C32.9603 16.0601 32.7376 15.7347 32.4256 15.5041C32.1004 15.2767 31.7065 15.1599 31.3055 15.1717C30.9299 15.1674 30.5596 15.2567 30.23 15.4309C29.9035 15.6039 29.6397 15.8696 29.4741 16.192C29.2863 16.5617 29.1943 16.9701 29.2061 17.3818C29.203 17.7768 29.2837 18.1682 29.4432 18.5318C29.5781 18.8672 29.8184 19.1531 30.1304 19.3493C30.4818 19.5516 30.8867 19.6498 31.2952 19.6318C31.7164 19.647 32.1301 19.5214 32.4668 19.2762C32.8063 19.0028 33.041 18.6272 33.1334 18.2094L32.5424 18.0631C32.4857 18.376 32.3225 18.6614 32.0786 18.8741Z" fill="white"/>
<path fill-rule="evenodd" clip-rule="evenodd" d="M35.1091 16.3815C34.9056 16.3732 34.7026 16.4075 34.514 16.4821C34.3255 16.5566 34.1557 16.6697 34.0165 16.8135C33.7222 17.1527 33.5734 17.5879 33.6007 18.0299C33.5741 18.4597 33.7235 18.8823 34.0165 19.2064C34.1617 19.3492 34.3367 19.4604 34.5299 19.5326C34.723 19.6048 34.9299 19.6364 35.1366 19.6252C35.4641 19.6385 35.7868 19.5461 36.054 19.3626C36.3046 19.1753 36.4806 18.9099 36.5522 18.6115L35.9887 18.5384C35.926 18.7312 35.8066 18.9021 35.6451 19.0303C35.4968 19.1319 35.3184 19.1844 35.1366 19.1798C35.0088 19.1852 34.8813 19.1639 34.7628 19.1174C34.6442 19.071 34.5374 19.0005 34.4494 18.9106C34.2548 18.6926 34.1475 18.4143 34.147 18.1263H36.5522C36.5522 18.0665 36.5522 18.0166 36.5522 17.9867C36.5796 17.5519 36.4332 17.1236 36.1434 16.7903C36.0102 16.6559 35.8493 16.55 35.6711 16.4796C35.493 16.4092 35.3015 16.3758 35.1091 16.3815ZM34.202 17.7109C34.2028 17.4622 34.3039 17.2237 34.4838 17.0462C34.5662 16.9668 34.6645 16.9044 34.7725 16.8627C34.8806 16.821 34.9963 16.8009 35.1126 16.8035C35.2435 16.7992 35.3736 16.8243 35.4928 16.8768C35.6121 16.9293 35.7171 17.0077 35.7998 17.106C35.9252 17.2802 35.9967 17.4854 36.0059 17.6976L34.202 17.7109Z" fill="white"/>
<path fill-rule="evenodd" clip-rule="evenodd" d="M39.6549 16.747C39.5608 16.628 39.4348 16.5361 39.2907 16.4812C39.1209 16.4131 38.9385 16.3792 38.7547 16.3815C38.5522 16.3713 38.3506 16.4126 38.1697 16.5012C37.9889 16.5899 37.8352 16.7227 37.7239 16.8866V16.4446H37.2325V19.562H37.796V17.8637C37.777 17.7191 37.7894 17.5722 37.8326 17.4326C37.8758 17.2929 37.9488 17.1635 38.0469 17.0528C38.2115 16.9093 38.4266 16.832 38.6482 16.8368C38.7805 16.8347 38.911 16.8668 39.0261 16.9298C39.1279 16.9896 39.2074 17.0793 39.2529 17.1857C39.303 17.3427 39.324 17.507 39.3148 17.671V19.562H39.8577V17.651C39.8635 17.4789 39.8543 17.3066 39.8302 17.1359C39.8013 16.9956 39.7415 16.863 39.6549 16.747Z" fill="white"/>
<path fill-rule="evenodd" clip-rule="evenodd" d="M41.6409 19.1134C41.5764 19.1172 41.5121 19.1034 41.4553 19.0735C41.4132 19.0503 41.3805 19.014 41.3626 18.9705C41.3351 18.8754 41.3247 18.7765 41.3316 18.678V16.8534H41.878V16.4446H41.3316V15.3612L40.7887 15.6736V16.4446H40.3833V16.8534H40.7887V18.6481C40.774 18.8595 40.796 19.0719 40.854 19.2762C40.9012 19.3783 40.9806 19.4632 41.0808 19.5188C41.2247 19.5839 41.3825 19.6147 41.5412 19.6086C41.6802 19.6068 41.8184 19.59 41.9536 19.5587L41.878 19.0934C41.7995 19.105 41.7203 19.1117 41.6409 19.1134Z" fill="white"/>
<path fill-rule="evenodd" clip-rule="evenodd" d="M43.249 16.4878C43.1045 16.6083 42.9874 16.7566 42.9054 16.9232V16.4446H42.4175V19.562H42.9501V17.9468C42.9465 17.7386 42.9766 17.5312 43.0394 17.332C43.0737 17.2173 43.1447 17.1161 43.2421 17.0428C43.332 16.9741 43.4437 16.9377 43.5582 16.9398C43.6983 16.9418 43.8355 16.9784 43.9568 17.0462L44.1527 16.5609C43.9846 16.4557 43.7894 16.3982 43.5892 16.3948C43.4686 16.3913 43.3498 16.4238 43.249 16.4878Z" fill="white"/>
<path fill-rule="evenodd" clip-rule="evenodd" d="M45.7916 16.3815C45.4172 16.3639 45.0495 16.4825 44.7608 16.7138C44.5851 16.8782 44.4493 17.0782 44.3631 17.2995C44.277 17.5207 44.2426 17.7577 44.2626 17.9934C44.2303 18.4329 44.3799 18.8669 44.6783 19.1998C44.8209 19.3393 44.992 19.4484 45.1808 19.5199C45.3696 19.5915 45.5719 19.624 45.7744 19.6152C46.0459 19.6188 46.3137 19.5535 46.551 19.4258C46.7831 19.3054 46.9723 19.1201 47.0939 18.894C47.2316 18.5979 47.2952 18.2745 47.2794 17.9502C47.2923 17.7398 47.2616 17.5292 47.189 17.3305C47.1164 17.1319 47.0034 16.9493 46.8568 16.7936C46.718 16.6578 46.5518 16.5511 46.3686 16.4802C46.1853 16.4093 45.9889 16.3757 45.7916 16.3815ZM46.4788 18.8973C46.3943 18.9931 46.2888 19.0693 46.1698 19.1205C46.0509 19.1717 45.9217 19.1965 45.7916 19.1931C45.662 19.1958 45.5333 19.1709 45.4146 19.1204C45.2959 19.0699 45.19 18.9949 45.1044 18.9007C44.9066 18.6436 44.8114 18.3262 44.8364 18.0067C44.8114 17.6871 44.9066 17.3697 45.1044 17.1126C45.1894 17.0177 45.2951 16.9422 45.414 16.8916C45.5328 16.841 45.6618 16.8166 45.7916 16.8202C45.9219 16.8158 46.0514 16.8402 46.1705 16.8914C46.2895 16.9427 46.395 17.0195 46.4788 17.116C46.6774 17.3638 46.7741 17.674 46.7503 17.9867C46.7733 18.3132 46.6732 18.6368 46.4685 18.8973H46.4788Z" fill="white"/>
<path fill-rule="evenodd" clip-rule="evenodd" d="M53.076 17.7441C53.1212 18.1296 53.0239 18.5182 52.8011 18.8408C52.6759 18.9455 52.5301 19.0245 52.3724 19.0731C52.2147 19.1216 52.0484 19.1387 51.8837 19.1233C51.6603 19.1304 51.4389 19.0812 51.2412 18.9804C51.0736 18.8901 50.9446 18.7453 50.877 18.5716C50.7906 18.3041 50.7534 18.024 50.767 17.7441V15.2648H50.1657V17.7474C50.1501 18.1135 50.2073 18.479 50.3341 18.8242C50.4433 19.0834 50.6442 19.2967 50.901 19.4258C51.221 19.578 51.5757 19.6489 51.9318 19.6318C52.2914 19.6475 52.6484 19.5658 52.9626 19.3959C53.2105 19.2525 53.4025 19.034 53.5089 18.7744C53.6216 18.4434 53.6728 18.0957 53.6601 17.7474V15.2648H53.0691L53.076 17.7441Z" fill="white"/>
<path fill-rule="evenodd" clip-rule="evenodd" d="M56.9931 16.747C56.8976 16.6279 56.7705 16.536 56.6254 16.4812C56.4567 16.4134 56.2755 16.3795 56.0928 16.3815C55.8904 16.3717 55.6889 16.4131 55.5081 16.5017C55.3273 16.5903 55.1736 16.723 55.062 16.8866V16.4446H54.5707V19.562H55.117V17.8637C55.0984 17.7189 55.1114 17.5719 55.1552 17.4322C55.199 17.2925 55.2726 17.1633 55.3713 17.0528C55.5347 16.9095 55.7486 16.8322 55.9691 16.8368C56.1026 16.8344 56.2342 16.8665 56.3505 16.9298C56.4516 16.9905 56.5308 17.0799 56.5773 17.1857C56.6257 17.343 56.6466 17.507 56.6391 17.671V19.562H57.1855V17.651C57.1906 17.4788 57.1803 17.3064 57.1546 17.1359C57.1298 16.9967 57.0748 16.8641 56.9931 16.747Z" fill="white"/>
<path d="M58.577 15.2648H58.0306V15.8663H58.577V15.2648Z" fill="white"/>
<path d="M58.577 16.4446H58.0306V19.5587H58.577V16.4446Z" fill="white"/>
<path fill-rule="evenodd" clip-rule="evenodd" d="M60.7554 18.349C60.6695 18.5783 60.6008 18.7744 60.5561 18.9372C60.4908 18.7212 60.4221 18.5151 60.3465 18.3124L59.6593 16.4446H59.0752L60.2915 19.562H60.8173L62.037 16.4446H61.477L60.7554 18.349Z" fill="white"/>
<path fill-rule="evenodd" clip-rule="evenodd" d="M63.8341 16.3815C63.6317 16.3739 63.43 16.4086 63.2426 16.4832C63.0553 16.5577 62.8867 16.6704 62.7484 16.8135C62.4528 17.152 62.3039 17.5878 62.3326 18.0299C62.3051 18.4592 62.4531 18.8818 62.7449 19.2064C62.8899 19.3486 63.0644 19.4595 63.2568 19.5316C63.4493 19.6038 63.6555 19.6357 63.8616 19.6252C64.1902 19.639 64.5142 19.5466 64.7825 19.3626C65.0343 19.1758 65.2116 18.9104 65.2841 18.6115L64.7206 18.5384C64.6567 18.7306 64.5375 18.9012 64.377 19.0303C64.2276 19.1324 64.0479 19.1849 63.8651 19.1798C63.7373 19.1852 63.6098 19.1639 63.4912 19.1174C63.3727 19.071 63.2658 19.0005 63.1779 18.9106C62.9819 18.6934 62.8744 18.4146 62.8755 18.1263H65.2807C65.2807 18.0665 65.2807 18.0166 65.2807 17.9867C65.309 17.5524 65.1639 17.1241 64.8752 16.7903C64.7413 16.655 64.5793 16.5487 64.3998 16.4782C64.2204 16.4078 64.0276 16.3748 63.8341 16.3815ZM62.9202 17.7109C62.9254 17.4631 63.0259 17.2262 63.2019 17.0462C63.285 16.9667 63.3838 16.9042 63.4925 16.8626C63.6011 16.8209 63.7173 16.8008 63.8341 16.8035C63.9651 16.7987 64.0954 16.8236 64.2148 16.8761C64.3341 16.9286 64.439 17.0073 64.5213 17.106C64.6485 17.2792 64.7191 17.4852 64.7241 17.6976L62.9202 17.7109Z" fill="white"/>
<path fill-rule="evenodd" clip-rule="evenodd" d="M66.796 16.4878C66.6491 16.6062 66.5317 16.755 66.4524 16.9232V16.4446H65.9713V19.562H66.5176V17.9468C66.516 17.7387 66.5461 17.5316 66.607 17.332C66.6413 17.2173 66.7122 17.1161 66.8097 17.0428C66.9009 16.9741 67.0137 16.9378 67.1292 16.9398C67.2693 16.9418 67.4065 16.9784 67.5278 17.0462L67.7202 16.5609C67.5534 16.4558 67.3593 16.3982 67.1602 16.3948C67.0315 16.3863 66.9035 16.419 66.796 16.4878Z" fill="white"/>
<path fill-rule="evenodd" clip-rule="evenodd" d="M69.9983 17.9169C69.7344 17.8206 69.4648 17.7396 69.1909 17.6743C68.9229 17.6045 68.7614 17.558 68.7064 17.538C68.6261 17.51 68.5549 17.4618 68.5002 17.3984C68.4564 17.3458 68.4333 17.2799 68.4349 17.2123C68.4354 17.1564 68.4504 17.1015 68.4787 17.0527C68.5069 17.0039 68.5474 16.9628 68.5964 16.9332C68.7561 16.8391 68.9428 16.7972 69.129 16.8135C69.3043 16.8018 69.4782 16.85 69.6204 16.9498C69.7394 17.0442 69.8148 17.1805 69.83 17.3287L70.3625 17.2555C70.34 17.0832 70.2765 16.9182 70.177 16.7736C70.0677 16.6408 69.9209 16.5415 69.7544 16.4878C69.5422 16.4124 69.3172 16.3763 69.0912 16.3815C68.9308 16.3796 68.771 16.4009 68.617 16.4446C68.4943 16.4761 68.3781 16.5278 68.2734 16.5975C68.1616 16.6733 68.0698 16.7735 68.0054 16.89C67.9365 17.0137 67.9022 17.1526 67.9058 17.2931C67.9094 17.4336 67.9509 17.5707 68.0261 17.6909C68.1076 17.8204 68.2272 17.9234 68.3697 17.9867C68.6384 18.0949 68.9167 18.1794 69.2012 18.2393C69.3935 18.2773 69.5804 18.3376 69.7578 18.4188C69.808 18.4483 69.8495 18.4898 69.8783 18.5392C69.9072 18.5887 69.9225 18.6445 69.9227 18.7013C69.9198 18.7662 69.9019 18.8298 69.8704 18.8873C69.8389 18.9447 69.7946 18.9947 69.7406 19.0336C69.5771 19.1437 69.3791 19.1954 69.1806 19.1798C68.9727 19.1933 68.7667 19.1343 68.5999 19.0137C68.455 18.8914 68.364 18.7202 68.3456 18.5351L67.8062 18.6182C67.8441 18.9085 67.9938 19.1743 68.2253 19.3626C68.5075 19.5463 68.8447 19.634 69.184 19.6119C69.4194 19.6174 69.6534 19.5756 69.8712 19.4889C70.0581 19.4144 70.2182 19.2885 70.3316 19.1267C70.4357 18.981 70.492 18.8085 70.4931 18.6315C70.4991 18.4719 70.4521 18.3147 70.3591 18.1828C70.2677 18.0625 70.1425 17.9702 69.9983 17.9169Z" fill="white"/>
<path d="M71.6785 15.2648H71.1322V15.8663H71.6785V15.2648Z" fill="white"/>
<path d="M71.6785 16.4446H71.1322V19.5587H71.6785V16.4446Z" fill="white"/>
<path fill-rule="evenodd" clip-rule="evenodd" d="M73.4584 19.1134C73.3939 19.1172 73.3296 19.1034 73.2728 19.0735C73.2325 19.0483 73.2003 19.0126 73.18 18.9705C73.1526 18.8754 73.1422 18.7765 73.1491 18.678V16.8534H73.6989V16.4446H73.1491V15.3612L72.6062 15.6736V16.4446H72.2042V16.8534H72.6062V18.6481C72.5915 18.8595 72.6135 19.0719 72.6715 19.2762C72.7192 19.379 72.7999 19.4641 72.9017 19.5188C73.0455 19.5843 73.2034 19.6151 73.3622 19.6086C73.4999 19.6064 73.637 19.5896 73.771 19.5587L73.6989 19.0934C73.6192 19.1049 73.5389 19.1116 73.4584 19.1134Z" fill="white"/>
<path fill-rule="evenodd" clip-rule="evenodd" d="M76.2655 15.2382H75.5474L75.1488 16.0624H75.6024L76.2655 15.2382Z" fill="white"/>
<path fill-rule="evenodd" clip-rule="evenodd" d="M76.8497 18.2559V17.5547C76.8536 17.3925 76.8444 17.2302 76.8222 17.0694C76.798 16.9302 76.7335 16.8004 76.6362 16.6951C76.5389 16.5898 76.4128 16.5134 76.2724 16.4745C76.0509 16.4041 75.8182 16.3726 75.5852 16.3815C75.3365 16.3769 75.0889 16.414 74.8534 16.4911C74.6656 16.551 74.4982 16.6589 74.3689 16.8035C74.2483 16.9635 74.1661 17.1474 74.1284 17.342L74.6644 17.4117C74.6962 17.2318 74.7923 17.0684 74.9358 16.9498C75.1076 16.8507 75.3068 16.8054 75.5062 16.8202C75.7286 16.805 75.9493 16.8675 76.1281 16.9963C76.1856 17.0567 76.2291 17.1283 76.2557 17.2062C76.2824 17.2841 76.2916 17.3667 76.2827 17.4483C76.2827 17.4682 76.2827 17.5148 76.2827 17.5879C75.9645 17.6792 75.6376 17.7393 75.3069 17.7674C75.144 17.7849 74.9822 17.8115 74.8224 17.8471C74.6833 17.8845 74.5511 17.9428 74.4307 18.0199C74.3128 18.0982 74.2152 18.2017 74.1455 18.3224C74.0739 18.4498 74.0372 18.5928 74.039 18.7378C74.0356 18.8579 74.0594 18.9772 74.1087 19.0874C74.1579 19.1976 74.2315 19.2961 74.3242 19.3759C74.5539 19.5569 74.8465 19.646 75.142 19.6252C75.3471 19.6283 75.551 19.5945 75.7433 19.5255C75.9583 19.4415 76.1561 19.3211 76.3274 19.1699C76.3398 19.3055 76.3758 19.438 76.4339 19.562H77.0043C76.9394 19.4448 76.8953 19.3178 76.8737 19.1865C76.8455 18.8771 76.8375 18.5663 76.8497 18.2559ZM76.2793 18.1928C76.2884 18.372 76.258 18.551 76.19 18.7179C76.1132 18.8731 75.9867 19.0002 75.8292 19.0801C75.6579 19.1714 75.4646 19.2173 75.2691 19.2131C75.0954 19.2252 74.9231 19.1756 74.7846 19.0735C74.7342 19.0327 74.6934 18.9819 74.6649 18.9246C74.6365 18.8673 74.6211 18.8047 74.6197 18.7411C74.6193 18.6527 74.6456 18.5661 74.6953 18.4919C74.7493 18.4158 74.8243 18.3559 74.9118 18.3191C75.0664 18.2672 75.2266 18.2326 75.3894 18.216C75.6938 18.1831 75.9934 18.1174 76.2827 18.0199L76.2793 18.1928Z" fill="white"/>
<path fill-rule="evenodd" clip-rule="evenodd" d="M78.5195 16.4878C78.3727 16.6062 78.2553 16.755 78.1759 16.9232V16.4446H77.6846V19.562H78.2309V17.9468C78.2292 17.7387 78.2593 17.5316 78.3202 17.332C78.3558 17.2179 78.4265 17.117 78.523 17.0428C78.6144 16.9746 78.727 16.9383 78.8425 16.9398C78.9815 16.9418 79.1176 16.9784 79.2376 17.0462L79.4335 16.5609C79.2669 16.4553 79.0726 16.3977 78.8734 16.3948C78.7482 16.3885 78.6242 16.4211 78.5195 16.4878Z" fill="white"/>
<path d="M80.2994 16.4446H79.7531V19.5587H80.2994V16.4446Z" fill="white"/>
<path d="M80.2994 15.2648H79.7531V15.8663H80.2994V15.2648Z" fill="white"/>
<path fill-rule="evenodd" clip-rule="evenodd" d="M82.4366 16.3815C82.0691 16.3679 81.7093 16.4863 81.4265 16.7138C81.2508 16.8782 81.1149 17.0782 81.0288 17.2995C80.9426 17.5207 80.9083 17.7577 80.9282 17.9934C80.896 18.4329 81.0455 18.8669 81.344 19.1998C81.486 19.3391 81.6566 19.448 81.8448 19.5195C82.033 19.5911 82.2346 19.6237 82.4366 19.6152C82.7082 19.6193 82.9761 19.5539 83.2132 19.4258C83.447 19.3064 83.6376 19.1209 83.7595 18.894C83.8973 18.5979 83.9608 18.2745 83.9451 17.9502C83.958 17.7398 83.9272 17.5292 83.8546 17.3305C83.782 17.1319 83.6691 16.9493 83.5224 16.7936C83.3812 16.6554 83.2116 16.5474 83.0246 16.4764C82.8376 16.4054 82.6373 16.3731 82.4366 16.3815ZM83.1238 18.8973C83.0397 18.9935 82.9342 19.07 82.8152 19.1212C82.6962 19.1724 82.5668 19.197 82.4366 19.1931C82.3069 19.1967 82.1779 19.1723 82.059 19.1217C81.9402 19.0711 81.8344 18.9956 81.7494 18.9007C81.5504 18.6441 81.454 18.3266 81.478 18.0067C81.4518 17.6865 81.5484 17.3682 81.7494 17.1126C81.8349 17.0203 81.9394 16.9464 82.0564 16.8958C82.1733 16.8453 82.3 16.8191 82.4281 16.8191C82.5562 16.8191 82.6828 16.8453 82.7997 16.8958C82.9167 16.9464 83.0213 17.0203 83.1067 17.1126C83.3052 17.3605 83.4019 17.6707 83.3781 17.9834C83.4092 18.3092 83.315 18.6346 83.1135 18.8973H83.1238Z" fill="white"/>
<path fill-rule="evenodd" clip-rule="evenodd" d="M71.761 12.8453C72.3393 13.0691 72.9594 13.1743 73.582 13.1544C74.1118 13.1633 74.6372 13.06 75.1214 12.8519C75.5491 12.672 75.9142 12.3766 76.1728 12.0011C76.4105 11.6555 76.5372 11.2496 76.537 10.8346C76.5399 10.4438 76.4201 10.0613 76.1934 9.73781C75.9309 9.38804 75.5744 9.11449 75.1626 8.94682C74.5874 8.73275 73.9942 8.56707 73.3896 8.45162C72.5329 8.26551 72.0015 8.08161 71.7953 7.89992C71.6941 7.81598 71.6136 7.71127 71.5595 7.59341C71.5054 7.47555 71.4791 7.34751 71.4826 7.21861C71.4828 7.05701 71.5235 6.89785 71.6013 6.75485C71.6791 6.61185 71.7917 6.48928 71.9293 6.39771C72.3428 6.13898 72.834 6.02195 73.3243 6.06536C73.8128 6.03584 74.2972 6.16703 74.6987 6.43759C74.8626 6.57796 74.9962 6.74831 75.0917 6.93882C75.1873 7.12933 75.2429 7.33624 75.2554 7.54763L76.2862 7.47452C76.2708 7.04138 76.1355 6.62017 75.8945 6.2548C75.6426 5.88991 75.2836 5.60631 74.8637 5.44054C74.3662 5.24636 73.8332 5.1514 73.2969 5.16137C72.7933 5.15496 72.2934 5.24533 71.8262 5.42725C71.4166 5.5778 71.0649 5.84709 70.8195 6.1983C70.5965 6.52349 70.477 6.90482 70.4759 7.29505C70.4708 7.636 70.5687 7.97097 70.7577 8.25886C70.9707 8.56633 71.2649 8.81305 71.6098 8.97341C72.1031 9.19184 72.6208 9.35465 73.1525 9.45864C73.6343 9.55976 74.1103 9.68511 74.5785 9.83419C74.8573 9.9215 75.1066 10.0799 75.3 10.2928C75.4456 10.474 75.522 10.6982 75.5165 10.9276C75.5168 11.167 75.4372 11.4001 75.2897 11.5923C75.1137 11.8123 74.8747 11.9776 74.6025 12.0676C74.2594 12.189 73.8958 12.2476 73.5305 12.2404C73.1084 12.248 72.6894 12.1698 72.3004 12.0111C71.9797 11.8885 71.7019 11.6798 71.4998 11.4095C71.3094 11.1233 71.1916 10.7976 71.1562 10.459L70.1598 10.5421C70.1685 11.0365 70.3197 11.5187 70.5962 11.9346C70.8805 12.345 71.2865 12.6624 71.761 12.8453Z" fill="white"/>
<path fill-rule="evenodd" clip-rule="evenodd" d="M77.4064 6.97932C77.076 7.63488 76.9122 8.35728 76.9287 9.08641C76.9247 9.79808 77.0684 10.5033 77.3514 11.1603C77.5985 11.7617 78.0287 12.2763 78.5849 12.6359C79.22 12.9992 79.9506 13.1759 80.6877 13.1444C81.4513 13.165 82.1989 12.9302 82.8043 12.4797C83.4124 11.9842 83.833 11.3073 84 10.5554L82.9418 10.3028C82.8501 10.8718 82.5604 11.3936 82.1206 11.7818C81.6973 12.1177 81.1629 12.2947 80.6156 12.2803C80.1307 12.2848 79.6543 12.157 79.2412 11.9114C78.8129 11.6583 78.4868 11.2714 78.3169 10.8146C78.1097 10.2621 78.0096 9.67737 78.0214 9.08973C78.0195 8.58425 78.1054 8.08205 78.2757 7.60413C78.4261 7.13933 78.7303 6.73527 79.1415 6.45421C79.5953 6.15843 80.1339 6.00842 80.6809 6.02548C81.1571 6.00806 81.6259 6.14362 82.014 6.411C82.4029 6.73368 82.68 7.16408 82.8078 7.64401L83.8386 7.40805C83.6598 6.74689 83.2584 6.16218 82.6978 5.7463C82.1097 5.33993 81.3998 5.13204 80.6774 5.15472C80.002 5.15 79.3364 5.31124 78.743 5.62333C78.1645 5.93242 77.698 6.4057 77.4064 6.97932Z" fill="white"/>
<path d="M83.945 14.0251H29.2095V14.3575H83.945V14.0251Z" fill="white"/>
</g>
<defs>
<clipPath id="clip0_2020_394">
<rect width="84" height="27" fill="white"/>
</clipPath>
</defs>
</svg>
